<?xml version="1.0" encoding="UTF-8"?>
<svg id="Calque_2" data-name="Calque 2" xmlns="http://www.w3.org/2000/svg" viewBox="0 0 830.3 381.98">
  <defs>
    <style>
      .cls-1 {
        fill: #d6bb73;
        stroke-width: 0px;
      }

      .cls-2 {
        fill: none;
        stroke: #a3a3a3;
        stroke-width: 2px;
      }
    </style>
  </defs>
  <g id="Calque_1-2" data-name="Calque 1">
    <path class="cls-2" d="M827.36,350.22c-5.39,13.95-21.79,23.2-47.47,27.65-25.61,4.45-60.12,4.07-101.12-.88-81.99-9.89-189.73-38.02-303.76-82.07-114.03-44.05-212.7-95.65-280.05-143.45-33.68-23.9-59.48-46.82-75.45-67.34C3.48,63.57-2.45,45.71,2.94,31.75,8.33,17.8,24.73,8.56,50.42,4.1,76.03-.35,110.54.03,151.54,4.98c81.99,9.89,189.73,38.02,303.76,82.07,114.03,44.05,212.7,95.65,280.05,143.45,33.68,23.9,59.48,46.82,75.45,67.34,16.02,20.57,21.94,38.43,16.55,52.39Z"/>
    <path class="cls-1" d="M796.38,269.72c0,6.63-5.37,12-12,12s-12-5.37-12-12,5.37-12,12-12,12,5.37,12,12Z"/>
    <circle class="cls-1" cx="55.45" cy="123.6" r="12"/>
  </g>
</svg>