<?xml version="1.0" encoding="UTF-8"?>
<svg id="Calque_2" data-name="Calque 2" xmlns="http://www.w3.org/2000/svg" viewBox="0 0 15.49 15.49">
  <defs>
    <style>
      .cls-1 {
        fill: #000;
      }

      .cls-1, .cls-2 {
        stroke-width: 0px;
      }

      .cls-2 {
        fill: #fff;
      }
    </style>
  </defs>
  <g id="Calque_1-2" data-name="Calque 1">
    <circle class="cls-2" cx="7.74" cy="7.74" r="7.74"/>
    <g>
      <path class="cls-1" d="M9.05,10.34c-.1,0-.21,0-.31,0-.38,0-.76,0-1.15,0-.12,0-.16-.02-.23-.13-.48-.88-.97-1.76-1.45-2.62-.13-.24-.26-.47-.39-.71-.03-.05-.06-.1-.1-.16-.02-.03-.04-.07-.07-.11l-.23-.38-.46.81c-.17.29-.32.57-.48.84l-.27.47c-.35.62-.72,1.26-1.07,1.9-.05.09-.07.09-.14.09-.41,0-.82,0-1.23,0-.1,0-.2,0-.29,0,.16-.29.33-.58.49-.87.63-1.11,1.28-2.26,1.93-3.39.31-.54.71-.84,1.24-.92.72-.11,1.29.15,1.69.78.36.57.7,1.17,1.03,1.76.12.22.25.44.37.66.3.53.61,1.08.9,1.6.07.13.14.25.21.38Z"/>
      <path class="cls-1" d="M14.3,10.35s-.05,0-.07,0c-.52,0-1,0-1.49-.01-.02-.01-.06-.05-.08-.07-.48-.86-.97-1.73-1.44-2.58-.15-.27-.3-.53-.44-.8-.03-.05-.06-.1-.09-.16-.02-.03-.04-.07-.06-.1l-.23-.39-1.25,2.19c-.15-.27-.31-.54-.46-.82-.05-.08-.1-.16-.15-.24-.09-.14-.19-.29-.19-.39,0-.1.11-.25.2-.38.05-.08.11-.16.15-.24.26-.46.52-.81.91-1.02.77-.41,1.66-.18,2.17.57.28.41.52.85.76,1.28.08.14.16.28.23.42.39.68.78,1.38,1.16,2.05.13.23.26.46.39.69Z"/>
    </g>
  </g>
</svg>