<?xml version="1.0" encoding="UTF-8"?>
<svg id="Calque_2" data-name="Calque 2" xmlns="http://www.w3.org/2000/svg" xmlns:xlink="http://www.w3.org/1999/xlink" viewBox="0 0 234.44 56.38">
  <defs>
    <style>
      .cls-1 {
        fill: url(#Dégradé_LuxAnt_RVB-5);
      }

      .cls-1, .cls-2, .cls-3, .cls-4, .cls-5, .cls-6, .cls-7, .cls-8 {
        stroke-width: 0px;
      }

      .cls-2 {
        fill: url(#Dégradé_LuxAnt_RVB-3);
      }

      .cls-3 {
        fill: #d6bb72;
      }

      .cls-4 {
        fill: url(#Dégradé_LuxAnt_RVB-2);
      }

      .cls-5 {
        fill: url(#Dégradé_LuxAnt_RVB-7);
      }

      .cls-6 {
        fill: url(#Dégradé_LuxAnt_RVB);
      }

      .cls-7 {
        fill: url(#Dégradé_LuxAnt_RVB-6);
      }

      .cls-8 {
        fill: url(#Dégradé_LuxAnt_RVB-4);
      }
    </style>
    <linearGradient id="Dégradé_LuxAnt_RVB" data-name="Dégradé LuxAnt RVB" x1="65.84" y1="3" x2="80.94" y2="59.33" gradientUnits="userSpaceOnUse">
      <stop offset="0" stop-color="#86764f"/>
      <stop offset=".5" stop-color="#d6bb74"/>
      <stop offset="1" stop-color="#86764f"/>
    </linearGradient>
    <linearGradient id="Dégradé_LuxAnt_RVB-2" data-name="Dégradé LuxAnt RVB" x1="94.52" y1="-5.42" x2="109.59" y2="50.84" xlink:href="#Dégradé_LuxAnt_RVB"/>
    <linearGradient id="Dégradé_LuxAnt_RVB-3" data-name="Dégradé LuxAnt RVB" x1="118.77" y1="-12.71" x2="133.71" y2="43.06" xlink:href="#Dégradé_LuxAnt_RVB"/>
    <linearGradient id="Dégradé_LuxAnt_RVB-4" data-name="Dégradé LuxAnt RVB" x1="211.21" y1="-41.4" x2="226.32" y2="15.02" xlink:href="#Dégradé_LuxAnt_RVB"/>
    <linearGradient id="Dégradé_LuxAnt_RVB-5" data-name="Dégradé LuxAnt RVB" x1="183.57" y1="-32.44" x2="198.52" y2="23.37" xlink:href="#Dégradé_LuxAnt_RVB"/>
    <linearGradient id="Dégradé_LuxAnt_RVB-6" data-name="Dégradé LuxAnt RVB" x1="147.06" y1="-22.35" x2="162.15" y2="33.98" xlink:href="#Dégradé_LuxAnt_RVB"/>
    <linearGradient id="Dégradé_LuxAnt_RVB-7" data-name="Dégradé LuxAnt RVB" x1="24.7" y1="15.43" x2="39.74" y2="71.56" xlink:href="#Dégradé_LuxAnt_RVB"/>
  </defs>
  <g id="Calque_1-2" data-name="Calque 1">
    <g>
      <polygon class="cls-6" points="72.12 2.29 72.12 33.55 82.81 33.55 82.81 38.71 66.64 38.71 66.64 2.29 72.12 2.29"/>
      <path class="cls-4" d="M106.97,27.64c0,2.23-.35,3.85-1.04,4.8-1.04,1.44-2.49,2.14-4.4,2.14s-3.34-.7-4.38-2.13c-.69-.99-1.05-2.6-1.05-4.8V11.14h-4.82v17.6c0,2.91.92,5.34,2.74,7.23,2.03,2.1,4.55,3.17,7.52,3.17s5.5-1.06,7.54-3.17c1.82-1.89,2.74-4.32,2.74-7.23V11.14h-4.82v16.49Z"/>
      <polygon class="cls-2" points="139.89 11.14 134.34 11.14 129.23 19.79 124.36 11.14 118.86 11.14 126.42 24.29 117.81 38.66 123.3 38.66 129.14 28.83 134.82 38.66 140.25 38.66 131.96 24.3 139.89 11.14"/>
      <polygon class="cls-8" points="217.38 11.14 217.38 15.74 223.51 15.74 223.51 38.66 228.33 38.66 228.33 15.74 234.44 15.74 234.44 11.14 217.38 11.14"/>
      <polygon class="cls-1" points="206.23 29.11 186.8 8.73 186.8 38.66 191.63 38.66 191.63 20.56 211.06 40.89 211.06 11.14 206.23 11.14 206.23 29.11"/>
      <path class="cls-7" d="M169.04,24.7l-5.39-12.39-5.65,12.39h11.04ZM171.27,29.87h-15.56l-4.05,8.85h-5.91L163.74,0l17.34,38.71h-6l-3.81-8.85Z"/>
      <path class="cls-5" d="M56.07,50.76L38.65,12.04l-12.5,26.86c-3.65-1.94-7.27-3.45-10.83-3.85-1.26-.14-2.51-.32-3.75-.28l9.37-20.51c.73-1.6,5.42-12.22,11.12-13.25-2.69-1.52-10.17-3.63-18.29,12.82L0,42.77c9.11-2.96,16.46-.97,23.28,2.29l-.06.14-5.19,11.14h7.55l3.7-8.11c16.73,10.37,33.43,12.2,35.56-2.55-1.85,2.93-5.38,4.51-8.77,5.08M32.03,42.2l6.5-14.32,9.77,22.48c-5.4-1.4-10.87-4.83-16.31-8.09l.03-.06Z"/>
    </g>
    <g>
      <path class="cls-3" d="M137.45,54.31v-6.89h1.12v6.89h-1.12Z"/>
      <path class="cls-3" d="M143.63,54.31v-7.17l4.38,4.21c.12.12.24.25.36.38.12.14.25.29.39.46v-4.78h1.04v7.16l-4.47-4.29c-.12-.12-.23-.24-.35-.37-.11-.13-.22-.26-.32-.4v4.79h-1.03Z"/>
      <path class="cls-3" d="M154.82,54.31v-7.17l4.38,4.21c.12.12.24.25.36.38.12.14.25.29.39.46v-4.78h1.04v7.16l-4.47-4.29c-.12-.12-.23-.24-.35-.37-.11-.13-.22-.26-.32-.4v4.79h-1.03Z"/>
      <path class="cls-3" d="M173.07,50.87c0,.49-.09.95-.28,1.39-.18.44-.45.83-.8,1.17-.35.34-.75.6-1.2.79-.45.18-.91.27-1.4.27s-.97-.09-1.42-.28c-.45-.18-.85-.44-1.19-.78-.35-.34-.62-.73-.8-1.16-.18-.43-.27-.9-.27-1.39s.09-.96.27-1.39c.18-.44.45-.83.8-1.17.35-.34.75-.6,1.2-.78s.92-.27,1.42-.27.97.09,1.41.27c.44.18.84.44,1.19.78.35.35.62.74.8,1.18.18.44.28.9.28,1.39ZM171.91,50.87c0-.35-.06-.68-.19-.99-.13-.31-.31-.59-.55-.84-.23-.24-.5-.43-.81-.56-.31-.13-.63-.2-.97-.2s-.66.06-.97.19-.58.32-.82.56c-.24.24-.42.52-.55.83-.13.31-.19.65-.19,1s.06.68.19.99.31.59.55.83c.24.24.51.43.81.56.3.13.63.19.97.19s.66-.06.96-.19c.3-.13.58-.32.82-.56.24-.24.42-.52.55-.84.13-.31.19-.64.19-.99Z"/>
      <path class="cls-3" d="M179.83,54.57l-3.07-7.16h1.16l1.54,3.67c.09.21.17.41.23.59.06.18.11.35.14.52.04-.17.09-.35.16-.54s.14-.37.22-.57l1.54-3.67h1.16l-3.07,7.16Z"/>
      <path class="cls-3" d="M191.43,54.31l-.78-1.77h-2.73l-.8,1.77h-1.18l3.34-7.17,3.33,7.17h-1.18ZM188.33,51.6h1.92l-.71-1.57c-.04-.1-.08-.22-.13-.35-.04-.13-.09-.28-.13-.44-.04.15-.08.29-.12.42-.04.13-.09.25-.13.36l-.71,1.57Z"/>
      <path class="cls-3" d="M198.4,48.37v5.94h-1.12v-5.94h-1.83v-.95h4.77v.95h-1.82Z"/>
      <path class="cls-3" d="M204.55,54.31v-6.89h1.12v6.89h-1.12Z"/>
      <path class="cls-3" d="M217.79,50.87c0,.49-.09.95-.28,1.39-.18.44-.45.83-.8,1.17-.35.34-.75.6-1.2.79-.45.18-.91.27-1.4.27s-.97-.09-1.42-.28c-.45-.18-.85-.44-1.19-.78-.35-.34-.62-.73-.8-1.16-.18-.43-.27-.9-.27-1.39s.09-.96.27-1.39c.18-.44.45-.83.8-1.17.35-.34.75-.6,1.2-.78s.92-.27,1.42-.27.97.09,1.41.27c.44.18.84.44,1.19.78.35.35.62.74.8,1.18.18.44.28.9.28,1.39ZM216.62,50.87c0-.35-.06-.68-.19-.99-.13-.31-.31-.59-.55-.84-.23-.24-.5-.43-.81-.56-.31-.13-.63-.2-.97-.2s-.66.06-.97.19-.58.32-.82.56c-.24.24-.42.52-.55.83-.13.31-.19.65-.19,1s.06.68.19.99.31.59.55.83c.24.24.51.43.81.56.3.13.63.19.97.19s.66-.06.96-.19c.3-.13.58-.32.82-.56.24-.24.42-.52.55-.84.13-.31.19-.64.19-.99Z"/>
      <path class="cls-3" d="M222.52,54.31v-7.17l4.38,4.21c.12.12.24.25.36.38.12.14.25.29.39.46v-4.78h1.04v7.16l-4.47-4.29c-.12-.12-.23-.24-.35-.37-.11-.13-.22-.26-.32-.4v4.79h-1.03Z"/>
    </g>
  </g>
</svg>