<?xml version="1.0" encoding="UTF-8"?>
<svg id="Calque_2" data-name="Calque 2" xmlns="http://www.w3.org/2000/svg" viewBox="0 0 550.22 202">
  <defs>
    <style>
      .cls-1 {
        fill: #000;
        stroke-width: 0px;
      }
    </style>
  </defs>
  <g id="Calque_1-2" data-name="Calque 1">
    <path class="cls-1" d="M192.11,201.71c-2.53-.01-5.06-.02-7.59-.03-9.17-.04-18.67-.09-28.05.16-3.01.08-4-.5-5.52-3.27-11.7-21.39-23.75-43.04-35.4-63.97-3.21-5.77-6.43-11.55-9.64-17.32-.7-1.27-1.44-2.44-2.36-3.92-.47-.75-1-1.6-1.61-2.59l-5.74-9.35-11.31,19.79c-4.05,7.09-7.9,13.81-11.72,20.55l-6.5,11.44c-8.62,15.17-17.54,30.85-26.17,46.38-1.27,2.28-1.79,2.28-3.32,2.25-10.01-.17-20.15-.16-29.97-.15-2.4,0-4.8,0-7.21,0,3.99-7.05,7.97-14.1,11.96-21.15,15.37-27.19,31.26-55.32,47.08-82.86,7.53-13.1,17.43-20.42,30.26-22.37,17.65-2.68,31.57,3.73,41.36,19.04,8.9,13.91,17.16,28.68,25.15,42.96,2.95,5.26,6,10.71,9.04,16.05,7.42,13.02,14.89,26.32,22.11,39.18,1.71,3.06,3.43,6.11,5.15,9.17Z"/>
    <path class="cls-1" d="M550.13,167.3c0-9.92,0-20.17-.06-30.25-.02-3.95-.42-7.99-1.17-12.02-3.24-17.4-13.2-32.29-28.04-41.94-10.43-6.78-22.23-10.28-34.24-10.28-4.84,0-9.72.57-14.55,1.72-16.98,4.04-31.88,15.21-40.88,30.64-8.86,15.19-11.17,32.44-6.5,48.6,5.33,18.41,17.14,33.12,33.27,41.41,15.29,7.85,32.81,8.96,49.33,3.11,3.28-1.17,6.57-2.72,10.06-4.37,1.75-.83,3.54-1.67,5.39-2.5l8.57-3.84.87,14.14c.49,0,.99-.01,1.48-.01,5.68-.06,11.07-.1,16.56.11-.09-11.52-.09-23.21-.09-34.52ZM513.52,164.76c-6.94,6.99-16.5,11.32-27.05,11.34h-.05c-10.21,0-19.82-4.02-27.06-11.31-7.38-7.44-11.39-17.34-11.29-27.88.2-21.19,17.54-38.32,38.65-38.23,21.03.12,38.1,17.52,38.06,38.8-.02,10.64-4.32,20.28-11.26,27.28Z"/>
    <path class="cls-1" d="M396.06,200.49c0,.35,0,.78-.01,1.23h-1.22c-5.71,0-11.41-.01-17.16-.01-3.6,0-7.21.01-10.86.01h-4.67V.15h33.85c.04,66.78.06,133.56.07,200.34Z"/>
    <path class="cls-1" d="M320.34,201.75c-.61,0-1.22,0-1.83.01-12.61.04-24.53.07-36.47-.25-.57-.31-1.55-1.18-1.9-1.79-11.85-20.93-23.73-42.33-35.23-63.02-3.61-6.49-7.22-12.99-10.83-19.49-.69-1.24-1.4-2.39-2.29-3.85-.46-.75-.97-1.59-1.56-2.56l-5.71-9.51-30.6,53.54c-3.73-6.57-7.53-13.28-11.21-19.92-1.11-1.99-2.39-3.91-3.62-5.77-2.22-3.32-4.73-7.09-4.7-9.42.02-2.37,2.58-6.1,4.84-9.38,1.29-1.87,2.62-3.81,3.77-5.83,6.44-11.32,12.69-19.91,22.24-25.05,18.78-10.1,40.56-4.4,52.95,13.86,6.75,9.95,12.8,20.79,18.66,31.27,1.9,3.41,3.8,6.82,5.73,10.2,9.5,16.69,19.07,33.71,28.32,50.17,3.15,5.6,6.29,11.2,9.44,16.79Z"/>
    <path class="cls-1" d="M333.75,74.87v91.64c-11.55-20.43-23.5-41.55-35.12-62.39-.78-1.39-1.29-3.42-1.34-5.29-.18-7.21-.15-14.32-.12-21.86.01-.7.01-1.4.01-2.1h36.57Z"/>
    <path class="cls-1" d="M338.44,23.57c-.08,6.13-2.48,11.79-6.76,15.93-4.38,4.26-10.34,6.55-16.74,6.44-6.22-.11-11.95-2.56-16.13-6.92-4.21-4.38-6.45-10.24-6.3-16.5C292.8,9.5,302.94-.21,316.04,0c12.74.17,22.58,10.53,22.4,23.57Z"/>
  </g>
</svg>