<?xml version="1.0" encoding="UTF-8"?>
<svg id="Calque_2" data-name="Calque 2" xmlns="http://www.w3.org/2000/svg" viewBox="0 0 567.02 332.53">
  <defs>
    <style>
      .cls-1 {
        fill: #000;
        stroke-width: 0px;
      }
    </style>
  </defs>
  <g id="Calque_1-2" data-name="Calque 1">
    <g>
      <path class="cls-1" d="M106.7,120.68c-6.3,11.02-11.96,20.9-17.58,30.8-10.92,19.23-21.89,38.44-32.64,57.77-2.12,3.82-4.57,5.67-9.11,5.59-14.38-.24-28.77-.11-43.15-.15-1.23,0-2.47-.17-4.22-.29.69-1.71,1.07-3.09,1.75-4.3,20.61-36.4,41.11-72.87,61.95-109.14,7.76-13.51,18.93-23.13,34.92-25.56,20.64-3.13,36.94,4.96,47.81,21.96,12.3,19.23,23.05,39.45,34.36,59.3,9.95,17.45,19.74,34.99,29.59,52.5.8,1.42,1.48,2.91,2.66,5.26-2.34.13-4.03.3-5.72.31-13.46.02-26.93-.23-40.38.13-5.56.15-8.76-1.84-11.4-6.65-14.86-27.16-29.97-54.19-45.02-81.25-.97-1.74-2.07-3.4-3.83-6.26Z"/>
      <path class="cls-1" d="M536.36,214.76c-.25-4.13-.45-7.35-.67-10.9-5.62,2.51-10.64,5.19-15.94,7.06-38.64,13.68-79.26-8.18-91.01-48.84-10.83-37.49,13.43-78.17,52.11-87.36,38.61-9.18,77.38,16.22,84.73,55.63.81,4.32,1.25,8.78,1.28,13.17.13,21.75-.03,43.51.15,65.26.04,4.41-1.06,6.29-5.85,6.08-8.07-.36-16.16-.1-24.8-.1ZM528.58,143.97c.03-17.8-14.05-32.19-31.6-32.28-17.63-.1-31.95,14.08-32.12,31.79-.17,17.99,14.16,32.65,31.89,32.63,17.52-.02,31.79-14.43,31.82-32.13Z"/>
      <path class="cls-1" d="M365.94,214.72V.15h46.56c.11,2.15.29,4.11.29,6.08.03,66.92.06,133.84.06,200.77,0,7.6-.19,7.73-7.73,7.73-12.88,0-25.75,0-39.18,0Z"/>
      <path class="cls-1" d="M341.6,214.73c-17.48,0-33.69.21-49.88-.23-2.4-.07-5.62-2.75-6.94-5.08-15.53-27.42-30.76-55.01-46.09-82.55-.97-1.74-2.04-3.42-3.73-6.23-10.4,18.19-20.3,35.51-30.47,53.32-1.07-1.45-1.9-2.36-2.49-3.4-4.92-8.65-9.86-17.3-14.68-26-3.38-6.09-9.2-12.31-9.13-18.41.07-6.15,6-12.27,9.46-18.36,6.26-10.99,13.26-21.34,24.82-27.56,21.32-11.47,47-5.29,61.4,15.94,9.08,13.38,16.63,27.82,24.65,41.9,13.04,22.9,25.91,45.9,38.84,68.86,1.24,2.21,2.42,4.45,4.24,7.79Z"/>
      <path class="cls-1" d="M300.99,74.88h49.56v122.5c-1.93-3.27-3.22-5.35-4.42-7.48-14.33-25.35-28.69-50.67-42.88-76.1-1.35-2.43-2.09-5.5-2.16-8.29-.25-10.09-.1-20.19-.1-30.62Z"/>
      <path class="cls-1" d="M325.13,58.94c-16.49-.28-29.21-13.54-28.83-30.06C296.68,12.38,309.83-.22,326.42,0c16.28.22,29.04,13.58,28.81,30.16-.22,16.43-13.43,29.06-30.1,28.78Z"/>
    </g>
    <path class="cls-1" d="M0,231.13c103.39,27.18,208.21,42.18,316.11,32.29-9.78,3.4-19.46,7.1-29.37,10.11-10.12,3.07-20.39,5.74-30.73,8.06-10.51,2.36-21.13,4.34-31.79,6-10.49,1.63-21.07,2.91-31.65,3.85-10.56.93-21.19,1.25-31.8,2.41,69.31,14.23,139.09,19.77,209.68,10.2,70.6-9.57,135.08-35.09,195.9-70.07.23.36.45.73.68,1.09-6.47,5.23-12.54,11.03-19.5,15.56-16.31,10.61-32.49,21.57-49.76,30.58-18.08,9.44-37.01,17.59-56.18,24.82-31.44,11.85-64.29,18.93-97.81,22.98-36.41,4.4-72.85,4.68-109.36.9-37.89-3.92-74.85-11.87-110.22-25.31-20.63-7.84-40.62-17.44-60.24-27.42-21.38-10.88-40.56-25.09-58.93-40.18-1.95-1.61-3.33-3.86-5.02-5.86Z"/>
  </g>
</svg>