<?xml version="1.0" encoding="UTF-8"?>
<svg id="Calque_2" data-name="Calque 2" xmlns="http://www.w3.org/2000/svg" xmlns:xlink="http://www.w3.org/1999/xlink" viewBox="0 0 439.55 105.71">
  <defs>
    <style>
      .cls-1 {
        fill: url(#Dégradé_LuxAnt_RVB-13);
      }

      .cls-1, .cls-2, .cls-3, .cls-4, .cls-5, .cls-6, .cls-7, .cls-8, .cls-9, .cls-10, .cls-11, .cls-12, .cls-13, .cls-14, .cls-15, .cls-16, .cls-17 {
        stroke-width: 0px;
      }

      .cls-2 {
        fill: url(#Dégradé_LuxAnt_RVB-12);
      }

      .cls-3 {
        fill: url(#Dégradé_LuxAnt_RVB-5);
      }

      .cls-4 {
        fill: url(#Dégradé_LuxAnt_RVB-9);
      }

      .cls-5 {
        fill: url(#Dégradé_LuxAnt_RVB-3);
      }

      .cls-6 {
        fill: url(#Dégradé_LuxAnt_RVB-15);
      }

      .cls-7 {
        fill: url(#Dégradé_LuxAnt_RVB-14);
      }

      .cls-8 {
        fill: url(#Dégradé_LuxAnt_RVB-2);
      }

      .cls-9 {
        fill: url(#Dégradé_LuxAnt_RVB-11);
      }

      .cls-10 {
        fill: url(#Dégradé_LuxAnt_RVB-7);
      }

      .cls-11 {
        fill: url(#Dégradé_LuxAnt_RVB);
      }

      .cls-12 {
        fill: url(#Dégradé_LuxAnt_RVB-8);
      }

      .cls-13 {
        fill: url(#Dégradé_LuxAnt_RVB-17);
      }

      .cls-14 {
        fill: url(#Dégradé_LuxAnt_RVB-6);
      }

      .cls-15 {
        fill: url(#Dégradé_LuxAnt_RVB-10);
      }

      .cls-16 {
        fill: url(#Dégradé_LuxAnt_RVB-16);
      }

      .cls-17 {
        fill: url(#Dégradé_LuxAnt_RVB-4);
      }
    </style>
    <linearGradient id="Dégradé_LuxAnt_RVB" data-name="Dégradé LuxAnt RVB" x1="123.45" y1="5.62" x2="151.75" y2="111.23" gradientUnits="userSpaceOnUse">
      <stop offset="0" stop-color="#86764f"/>
      <stop offset=".5" stop-color="#d6bb74"/>
      <stop offset="1" stop-color="#86764f"/>
    </linearGradient>
    <linearGradient id="Dégradé_LuxAnt_RVB-2" data-name="Dégradé LuxAnt RVB" x1="177.2" y1="-10.16" x2="205.47" y2="95.32" xlink:href="#Dégradé_LuxAnt_RVB"/>
    <linearGradient id="Dégradé_LuxAnt_RVB-3" data-name="Dégradé LuxAnt RVB" x1="222.68" y1="-23.82" x2="250.69" y2="80.73" xlink:href="#Dégradé_LuxAnt_RVB"/>
    <linearGradient id="Dégradé_LuxAnt_RVB-4" data-name="Dégradé LuxAnt RVB" x1="395.99" y1="-77.62" x2="424.33" y2="28.15" xlink:href="#Dégradé_LuxAnt_RVB"/>
    <linearGradient id="Dégradé_LuxAnt_RVB-5" data-name="Dégradé LuxAnt RVB" x1="344.16" y1="-60.81" x2="372.19" y2="43.81" xlink:href="#Dégradé_LuxAnt_RVB"/>
    <linearGradient id="Dégradé_LuxAnt_RVB-6" data-name="Dégradé LuxAnt RVB" x1="275.72" y1="-41.9" x2="304.02" y2="63.7" xlink:href="#Dégradé_LuxAnt_RVB"/>
    <linearGradient id="Dégradé_LuxAnt_RVB-7" data-name="Dégradé LuxAnt RVB" x1="46.31" y1="28.92" x2="74.51" y2="134.16" xlink:href="#Dégradé_LuxAnt_RVB"/>
    <linearGradient id="Dégradé_LuxAnt_RVB-8" data-name="Dégradé LuxAnt RVB" x1="257.7" y1="95.36" x2="259.8" y2="95.36" xlink:href="#Dégradé_LuxAnt_RVB"/>
    <linearGradient id="Dégradé_LuxAnt_RVB-9" data-name="Dégradé LuxAnt RVB" x1="269.28" y1="95.35" x2="280.83" y2="95.35" xlink:href="#Dégradé_LuxAnt_RVB"/>
    <linearGradient id="Dégradé_LuxAnt_RVB-10" data-name="Dégradé LuxAnt RVB" x1="290.26" y1="95.35" x2="301.81" y2="95.35" xlink:href="#Dégradé_LuxAnt_RVB"/>
    <linearGradient id="Dégradé_LuxAnt_RVB-11" data-name="Dégradé LuxAnt RVB" x1="310.68" y1="95.38" x2="324.49" y2="95.38" xlink:href="#Dégradé_LuxAnt_RVB"/>
    <linearGradient id="Dégradé_LuxAnt_RVB-12" data-name="Dégradé LuxAnt RVB" x1="331.39" y1="95.61" x2="342.91" y2="95.61" xlink:href="#Dégradé_LuxAnt_RVB"/>
    <linearGradient id="Dégradé_LuxAnt_RVB-13" data-name="Dégradé LuxAnt RVB" x1="348.61" y1="95.1" x2="361.11" y2="95.1" xlink:href="#Dégradé_LuxAnt_RVB"/>
    <linearGradient id="Dégradé_LuxAnt_RVB-14" data-name="Dégradé LuxAnt RVB" x1="366.45" y1="95.36" x2="375.4" y2="95.36" xlink:href="#Dégradé_LuxAnt_RVB"/>
    <linearGradient id="Dégradé_LuxAnt_RVB-15" data-name="Dégradé LuxAnt RVB" x1="383.5" y1="95.36" x2="385.6" y2="95.36" xlink:href="#Dégradé_LuxAnt_RVB"/>
    <linearGradient id="Dégradé_LuxAnt_RVB-16" data-name="Dégradé LuxAnt RVB" x1="394.52" y1="95.38" x2="408.33" y2="95.38" xlink:href="#Dégradé_LuxAnt_RVB"/>
    <linearGradient id="Dégradé_LuxAnt_RVB-17" data-name="Dégradé LuxAnt RVB" x1="417.2" y1="95.35" x2="428.76" y2="95.35" xlink:href="#Dégradé_LuxAnt_RVB"/>
  </defs>
  <g id="Calque_1-2" data-name="Calque 1">
    <g>
      <polygon class="cls-11" points="135.22 4.29 135.22 62.9 155.25 62.9 155.25 72.58 124.94 72.58 124.94 4.29 135.22 4.29"/>
      <path class="cls-8" d="M200.55,51.81c0,4.18-.66,7.21-1.96,8.99-1.96,2.69-4.66,4-8.26,4s-6.27-1.31-8.22-4c-1.3-1.85-1.97-4.88-1.97-9v-30.92h-9.04v33c0,5.45,1.73,10.02,5.13,13.56,3.8,3.94,8.54,5.94,14.1,5.94s10.31-2,14.13-5.94c3.4-3.54,5.13-8.11,5.13-13.56V20.89h-9.05v30.92Z"/>
      <polygon class="cls-5" points="262.27 20.89 251.87 20.89 242.28 37.1 233.16 20.89 222.84 20.89 237.02 45.54 220.87 72.48 231.17 72.48 242.13 54.05 252.77 72.48 262.95 72.48 247.41 45.56 262.27 20.89"/>
      <polygon class="cls-17" points="407.56 20.89 407.56 29.51 419.05 29.51 419.05 72.48 428.09 72.48 428.09 29.51 439.55 29.51 439.55 20.89 407.56 20.89"/>
      <polygon class="cls-3" points="386.66 54.57 350.23 16.36 350.23 72.48 359.27 72.48 359.27 38.54 395.71 76.66 395.71 20.89 386.66 20.89 386.66 54.57"/>
      <path class="cls-14" d="M316.92,46.31l-10.1-23.22-10.59,23.22h20.69ZM321.11,56h-29.17l-7.59,16.59h-11.08L306.99,0l32.52,72.58h-11.25l-7.15-16.59Z"/>
      <path class="cls-10" d="M105.12,95.16L72.47,22.58l-23.44,50.36c-6.84-3.64-13.63-6.46-20.3-7.22-2.36-.27-4.7-.59-7.02-.52l17.57-38.46c1.37-2.99,10.16-22.91,20.85-24.84-5.05-2.86-19.07-6.8-34.3,24.04L0,80.19c17.07-5.54,30.86-1.83,43.65,4.3l-.12.26-9.72,20.88h14.16l6.93-15.2c31.37,19.45,62.67,22.88,66.67-4.78-3.46,5.49-10.08,8.45-16.45,9.52M60.05,79.12l12.19-26.86,18.33,42.15c-10.13-2.62-20.38-9.05-30.57-15.17l.05-.12Z"/>
    </g>
    <g>
      <path class="cls-12" d="M257.7,101.82v-12.92h2.1v12.92h-2.1Z"/>
      <path class="cls-4" d="M269.28,101.82v-13.43l8.21,7.9c.22.22.45.46.68.71.23.25.47.54.72.86v-8.96h1.94v13.42l-8.38-8.04c-.22-.22-.44-.45-.65-.69-.21-.24-.41-.49-.6-.76v8.98h-1.93Z"/>
      <path class="cls-15" d="M290.26,101.82v-13.43l8.21,7.9c.22.22.45.46.68.71.23.25.47.54.72.86v-8.96h1.94v13.42l-8.38-8.04c-.22-.22-.44-.45-.65-.69-.21-.24-.41-.49-.6-.76v8.98h-1.93Z"/>
      <path class="cls-9" d="M324.49,95.38c0,.92-.17,1.79-.52,2.6-.34.82-.85,1.55-1.51,2.19-.66.64-1.42,1.13-2.25,1.47-.84.34-1.71.51-2.63.51s-1.82-.17-2.66-.52c-.84-.34-1.59-.83-2.24-1.47-.66-.64-1.16-1.37-1.5-2.18-.34-.81-.51-1.68-.51-2.61s.17-1.79.51-2.61c.34-.82.84-1.55,1.5-2.2.66-.64,1.41-1.13,2.24-1.47s1.72-.5,2.66-.5,1.81.17,2.64.5c.83.34,1.58.82,2.24,1.47.66.65,1.16,1.39,1.51,2.21.34.82.52,1.69.52,2.6ZM322.3,95.38c0-.65-.12-1.27-.36-1.86-.24-.59-.58-1.11-1.03-1.57-.44-.45-.94-.8-1.51-1.05-.57-.24-1.18-.37-1.81-.37s-1.24.12-1.81.36-1.08.59-1.53,1.05c-.45.45-.79.97-1.02,1.56-.24.59-.35,1.21-.35,1.87s.12,1.27.35,1.85.58,1.1,1.02,1.56c.45.46.96.81,1.53,1.05.57.24,1.18.36,1.82.36s1.23-.12,1.8-.36c.57-.24,1.08-.59,1.53-1.05.45-.46.79-.98,1.03-1.57.24-.59.36-1.2.36-1.85Z"/>
      <path class="cls-2" d="M337.15,102.32l-5.76-13.42h2.18l2.89,6.88c.17.4.31.77.42,1.11.11.34.2.66.26.97.08-.32.17-.66.29-1.01s.26-.7.42-1.07l2.89-6.88h2.17l-5.76,13.42Z"/>
      <path class="cls-1" d="M358.9,101.82l-1.47-3.33h-5.12l-1.5,3.33h-2.21l6.26-13.43,6.25,13.43h-2.22ZM353.09,96.74h3.6l-1.32-2.95c-.08-.19-.16-.4-.24-.65-.08-.24-.16-.52-.25-.82-.07.28-.15.55-.22.79-.08.24-.16.47-.24.68l-1.32,2.95Z"/>
      <path class="cls-7" d="M371.98,90.68v11.14h-2.1v-11.14h-3.43v-1.78h8.95v1.78h-3.42Z"/>
      <path class="cls-6" d="M383.5,101.82v-12.92h2.1v12.92h-2.1Z"/>
      <path class="cls-16" d="M408.33,95.38c0,.92-.17,1.79-.52,2.6-.34.82-.85,1.55-1.51,2.19-.66.64-1.42,1.13-2.25,1.47-.84.34-1.71.51-2.63.51s-1.82-.17-2.66-.52c-.84-.34-1.59-.83-2.24-1.47-.66-.64-1.16-1.37-1.5-2.18-.34-.81-.51-1.68-.51-2.61s.17-1.79.51-2.61c.34-.82.84-1.55,1.5-2.2.66-.64,1.41-1.13,2.24-1.47s1.72-.5,2.66-.5,1.81.17,2.64.5c.83.34,1.58.82,2.24,1.47.66.65,1.16,1.39,1.51,2.21.34.82.52,1.69.52,2.6ZM406.14,95.38c0-.65-.12-1.27-.36-1.86-.24-.59-.58-1.11-1.03-1.57-.44-.45-.94-.8-1.51-1.05-.57-.24-1.18-.37-1.81-.37s-1.24.12-1.81.36-1.08.59-1.53,1.05c-.45.45-.79.97-1.02,1.56-.24.59-.35,1.21-.35,1.87s.12,1.27.35,1.85.58,1.1,1.02,1.56c.45.46.96.81,1.53,1.05.57.24,1.18.36,1.82.36s1.23-.12,1.8-.36c.57-.24,1.08-.59,1.53-1.05.45-.46.79-.98,1.03-1.57.24-.59.36-1.2.36-1.85Z"/>
      <path class="cls-13" d="M417.2,101.82v-13.43l8.21,7.9c.22.22.45.46.68.71.23.25.47.54.72.86v-8.96h1.94v13.42l-8.38-8.04c-.22-.22-.44-.45-.65-.69-.21-.24-.41-.49-.6-.76v8.98h-1.93Z"/>
    </g>
  </g>
</svg>