<?xml version="1.0" encoding="UTF-8"?>
<svg id="Calque_2" data-name="Calque 2" xmlns="http://www.w3.org/2000/svg" viewBox="0 0 934.5 548.04">
  <defs>
    <style>
      .cls-1 {
        fill: #000;
      }

      .cls-1, .cls-2 {
        stroke-width: 0px;
      }

      .cls-2 {
        fill: #fff;
      }
    </style>
  </defs>
  <g id="Calque_1-2" data-name="Calque 1">
    <g>
      <path class="cls-1" d="M175.85,198.88c-10.38,18.17-19.72,34.44-28.98,50.75-17.99,31.7-36.08,63.35-53.8,95.2-3.5,6.29-7.54,9.34-15.01,9.22-23.7-.4-47.41-.18-71.11-.24-2.03,0-4.07-.27-6.95-.48,1.13-2.82,1.76-5.1,2.89-7.09,33.96-60,67.75-120.09,102.09-179.87,12.79-22.26,31.2-38.13,57.54-42.12,34.02-5.16,60.87,8.17,78.8,36.19,20.27,31.69,37.98,65.02,56.63,97.73,16.39,28.76,32.54,57.66,48.77,86.52,1.32,2.34,2.43,4.79,4.39,8.67-3.85.21-6.64.5-9.43.51-22.19.04-44.38-.37-66.55.21-9.16.24-14.44-3.03-18.78-10.96-24.49-44.76-49.4-89.3-74.19-133.9-1.59-2.86-3.41-5.6-6.31-10.32Z"/>
      <path class="cls-1" d="M883.97,353.94c-.42-6.81-.74-12.11-1.1-17.97-9.26,4.14-17.53,8.55-26.27,11.64-63.68,22.55-130.62-13.48-149.99-80.5-17.86-61.78,22.14-128.83,85.89-143.98,63.64-15.13,127.54,26.74,139.64,91.68,1.33,7.13,2.06,14.47,2.11,21.71.22,35.85-.04,71.7.25,107.55.06,7.27-1.75,10.37-9.65,10.02-13.3-.59-26.64-.16-40.88-.16ZM871.14,237.28c.05-29.34-23.15-53.05-52.07-53.21-29.05-.16-52.66,23.21-52.93,52.39-.27,29.64,23.34,53.81,52.56,53.77,28.88-.04,52.39-23.78,52.45-52.95Z"/>
      <path class="cls-1" d="M603.09,353.88V.25h76.73c.18,3.55.48,6.78.48,10.01.06,110.29.09,220.59.11,330.88,0,12.52-.31,12.74-12.74,12.74-21.22-.01-42.44,0-64.58,0Z"/>
      <path class="cls-1" d="M562.98,353.9c-28.8,0-55.52.35-82.21-.38-3.96-.11-9.26-4.52-11.43-8.37-25.59-45.2-50.7-90.66-75.96-136.05-1.59-2.86-3.37-5.63-6.15-10.26-17.13,29.98-33.45,58.53-50.22,87.87-1.77-2.39-3.13-3.89-4.1-5.6-8.11-14.26-16.24-28.51-24.19-42.85-5.56-10.04-15.16-20.28-15.05-30.35.11-10.14,9.89-20.23,15.6-30.25,10.31-18.11,21.86-35.18,40.9-45.41,35.14-18.9,77.46-8.72,101.2,26.27,14.97,22.05,27.41,45.84,40.63,69.06,21.49,37.74,42.7,75.65,64.01,113.49,2.05,3.63,3.99,7.33,6.99,12.84Z"/>
      <path class="cls-1" d="M496.06,123.4h81.67v201.89c-3.19-5.38-5.3-8.82-7.28-12.33-23.61-41.78-47.29-83.52-70.67-125.43-2.23-4-3.44-9.06-3.56-13.67-.42-16.63-.16-33.28-.16-50.47Z"/>
      <path class="cls-1" d="M535.84,97.14c-27.18-.46-48.13-22.31-47.51-49.55C488.95,20.41,510.63-.37,537.97,0c26.83.37,47.85,22.38,47.48,49.7-.37,27.08-22.13,47.89-49.61,47.43Z"/>
    </g>
    <g>
      <path class="cls-2" d="M9.45,380.93c2.68,3.3,4.87,7,7.98,9.65,29.21,24.88,59.69,48.29,93.69,66.23,31.2,16.46,62.97,32.28,95.76,45.19,56.23,22.15,114.98,35.24,175.21,41.71,58.04,6.23,115.97,5.76,173.85-1.49,53.28-6.67,105.5-18.33,155.48-37.87,30.48-11.91,60.58-25.35,89.32-40.9,27.44-14.85,53.18-32.92,79.1-50.4,11.07-7.47,20.71-17.04,31-25.65-.36-.6-.72-1.2-1.07-1.79-96.68,57.66-199.18,99.72-311.42,115.48-112.22,15.76-223.15,6.63-333.33-16.82,16.87-1.91,33.76-2.44,50.55-3.98,16.83-1.54,33.63-3.66,50.31-6.34,16.94-2.73,33.83-6,50.54-9.89,16.43-3.82,32.77-8.22,48.85-13.28,15.76-4.95,31.14-11.06,46.69-16.66-171.52,16.3-338.15-8.41-502.52-53.21Z"/>
      <path class="cls-1" d="M0,380.93c170.4,44.8,343.15,69.51,520.97,53.21-16.12,5.6-32.08,11.7-48.41,16.66-16.68,5.06-33.61,9.45-50.65,13.28-17.32,3.89-34.83,7.16-52.4,9.89-17.29,2.69-34.72,4.8-52.16,6.34-17.41,1.54-34.91,2.06-52.41,3.98,114.23,23.45,229.23,32.58,345.57,16.82,116.36-15.77,222.63-57.83,322.86-115.48.37.6.74,1.2,1.11,1.79-10.67,8.61-20.66,18.18-32.14,25.65-26.87,17.48-53.55,35.55-82,50.4-29.79,15.55-61,28.99-92.6,40.9-51.82,19.54-105.95,31.2-161.19,37.87-60,7.25-120.06,7.72-180.23,1.49-62.45-6.47-123.36-19.55-181.65-41.71-34-12.92-66.94-28.74-99.28-45.19-35.24-17.93-66.84-41.35-97.13-66.23-3.22-2.65-5.49-6.35-8.27-9.65Z"/>
    </g>
  </g>
</svg>